<mxfile host="app.diagrams.net" agent="Mozilla/5.0 (Windows NT 10.0; Win64; x64) AppleWebKit/537.36 (KHTML, like Gecko) Chrome/130.0.0.0 Safari/537.36" version="24.7.17">
  <diagram name="Page-1" id="lH1NiNcE4W4nlqMhrEIs">
    <mxGraphModel dx="2497" dy="872" grid="1" gridSize="10" guides="1" tooltips="1" connect="1" arrows="1" fold="1" page="1" pageScale="1" pageWidth="850" pageHeight="1100" background="#ffffff" math="0" shadow="0">
      <root>
        <mxCell id="0" />
        <mxCell id="1" parent="0" />
        <mxCell id="7k4Nm1JUsRb4ZL0qA64T-42" value="&lt;font style=&quot;font-size: 17px;&quot;&gt;Poll&lt;/font&gt;" style="swimlane;childLayout=stackLayout;horizontal=1;startSize=50;horizontalStack=0;rounded=1;fontSize=14;fontStyle=0;strokeWidth=2;resizeParent=0;resizeLast=1;shadow=0;dashed=0;align=center;arcSize=4;whiteSpace=wrap;html=1;strokeColor=#36393d;fillColor=#cce5ff;swimlaneFillColor=default;" vertex="1" parent="1">
          <mxGeometry x="-180" y="552.5" width="200" height="240" as="geometry" />
        </mxCell>
        <mxCell id="7k4Nm1JUsRb4ZL0qA64T-43" value="&lt;div style=&quot;font-size: 14px; line-height: 140%;&quot;&gt;&lt;font style=&quot;font-size: 14px;&quot;&gt;pollID: String&lt;/font&gt;&lt;/div&gt;&lt;div style=&quot;font-size: 14px; line-height: 140%;&quot;&gt;&lt;font style=&quot;font-size: 14px;&quot;&gt;byUser: User?&lt;/font&gt;&lt;/div&gt;&lt;div style=&quot;font-size: 14px; line-height: 140%;&quot;&gt;&lt;font style=&quot;font-size: 14px;&quot;&gt;question: String&lt;/font&gt;&lt;/div&gt;&lt;div style=&quot;font-size: 14px; line-height: 140%;&quot;&gt;&lt;font style=&quot;font-size: 14px;&quot;&gt;publishedAt: Instant?&lt;/font&gt;&lt;/div&gt;&lt;div style=&quot;font-size: 14px; line-height: 140%;&quot;&gt;&lt;font style=&quot;font-size: 14px;&quot;&gt;lastModifiedAt: Instant?&lt;/font&gt;&lt;/div&gt;&lt;div style=&quot;font-size: 14px; line-height: 140%;&quot;&gt;&lt;font style=&quot;font-size: 14px;&quot;&gt;validUntil: Instant&lt;/font&gt;&lt;/div&gt;&lt;div style=&quot;font-size: 14px; line-height: 140%;&quot;&gt;&lt;font style=&quot;font-size: 14px;&quot;&gt;voteOptions: List&amp;lt;String&amp;gt;&lt;/font&gt;&lt;/div&gt;&lt;div style=&quot;font-size: 14px; line-height: 140%;&quot;&gt;&lt;font style=&quot;font-size: 14px;&quot;&gt;votes: Set&amp;lt;Vote&amp;gt;&lt;/font&gt;&lt;/div&gt;" style="align=left;strokeColor=none;fillColor=none;spacingLeft=4;fontSize=12;verticalAlign=top;resizable=0;rotatable=0;part=1;html=1;fontColor=#46495D;" vertex="1" parent="7k4Nm1JUsRb4ZL0qA64T-42">
          <mxGeometry y="50" width="200" height="190" as="geometry" />
        </mxCell>
        <mxCell id="7k4Nm1JUsRb4ZL0qA64T-44" value="&lt;font style=&quot;font-size: 17px;&quot;&gt;User&lt;/font&gt;" style="swimlane;childLayout=stackLayout;horizontal=1;startSize=50;horizontalStack=0;rounded=1;fontSize=14;fontStyle=0;strokeWidth=2;resizeParent=0;resizeLast=1;shadow=0;dashed=0;align=center;arcSize=4;whiteSpace=wrap;html=1;strokeColor=#36393d;fillColor=#cce5ff;swimlaneFillColor=#ffffff;" vertex="1" parent="1">
          <mxGeometry x="255" y="240" width="180" height="160" as="geometry" />
        </mxCell>
        <mxCell id="7k4Nm1JUsRb4ZL0qA64T-45" value="&lt;div style=&quot;font-size: 14px; line-height: 140%;&quot;&gt;&lt;font style=&quot;font-size: 14px;&quot;&gt;userID: Long?&lt;/font&gt;&lt;/div&gt;&lt;div style=&quot;font-size: 14px; line-height: 140%;&quot;&gt;&lt;font style=&quot;font-size: 14px;&quot;&gt;username: String&lt;/font&gt;&lt;/div&gt;&lt;div style=&quot;font-size: 14px; line-height: 140%;&quot;&gt;&lt;font style=&quot;font-size: 14px;&quot;&gt;email: String&lt;/font&gt;&lt;/div&gt;&lt;div style=&quot;font-size: 14px; line-height: 140%;&quot;&gt;&lt;font style=&quot;font-size: 14px;&quot;&gt;passwordHash: String&lt;/font&gt;&lt;/div&gt;&lt;div style=&quot;font-size: 14px; line-height: 140%;&quot;&gt;&lt;br&gt;&lt;/div&gt;" style="align=left;strokeColor=none;fillColor=none;spacingLeft=4;fontSize=12;verticalAlign=top;resizable=0;rotatable=0;part=1;html=1;fontColor=#46495D;" vertex="1" parent="7k4Nm1JUsRb4ZL0qA64T-44">
          <mxGeometry y="50" width="180" height="110" as="geometry" />
        </mxCell>
        <mxCell id="7k4Nm1JUsRb4ZL0qA64T-59" value="&lt;font color=&quot;#000000&quot;&gt;0 or many votes per user&lt;/font&gt;" style="edgeStyle=orthogonalEdgeStyle;rounded=0;orthogonalLoop=1;jettySize=auto;html=1;exitX=0.5;exitY=0;exitDx=0;exitDy=0;entryX=0.5;entryY=1;entryDx=0;entryDy=0;strokeColor=#000000;fontColor=#46495D;fillColor=#B2C9AB;endArrow=ERone;endFill=0;startArrow=ERzeroToMany;startFill=0;endSize=12;startSize=12;" edge="1" parent="1" source="7k4Nm1JUsRb4ZL0qA64T-46" target="7k4Nm1JUsRb4ZL0qA64T-45">
          <mxGeometry relative="1" as="geometry">
            <mxPoint as="offset" />
          </mxGeometry>
        </mxCell>
        <mxCell id="7k4Nm1JUsRb4ZL0qA64T-46" value="&lt;font style=&quot;font-size: 17px;&quot;&gt;Vote&lt;/font&gt;" style="swimlane;childLayout=stackLayout;horizontal=1;startSize=50;horizontalStack=0;rounded=1;fontSize=14;fontStyle=0;strokeWidth=2;resizeParent=0;resizeLast=1;shadow=0;dashed=0;align=center;arcSize=4;whiteSpace=wrap;html=1;strokeColor=#36393d;fillColor=#cce5ff;swimlaneFillColor=default;" vertex="1" parent="1">
          <mxGeometry x="250" y="570" width="190" height="205" as="geometry" />
        </mxCell>
        <mxCell id="7k4Nm1JUsRb4ZL0qA64T-47" value="&lt;div style=&quot;font-size: 14px; line-height: 140%;&quot;&gt;&lt;font style=&quot;font-size: 14px;&quot;&gt;id: Long&lt;/font&gt;&lt;/div&gt;&lt;div style=&quot;font-size: 14px; line-height: 140%;&quot;&gt;&lt;font style=&quot;font-size: 14px;&quot;&gt;poll: Poll&lt;/font&gt;&lt;/div&gt;&lt;div style=&quot;font-size: 14px; line-height: 140%;&quot;&gt;&lt;font style=&quot;font-size: 14px;&quot;&gt;user: User&lt;/font&gt;&lt;/div&gt;&lt;div style=&quot;font-size: 14px; line-height: 140%;&quot;&gt;&lt;font style=&quot;font-size: 14px;&quot;&gt;voteOption: String&lt;/font&gt;&lt;/div&gt;&lt;div style=&quot;font-size: 14px; line-height: 140%;&quot;&gt;&lt;font style=&quot;font-size: 14px;&quot;&gt;publishedAt: Instant?&lt;/font&gt;&lt;/div&gt;&lt;div style=&quot;font-size: 14px; line-height: 140%;&quot;&gt;&lt;font style=&quot;font-size: 14px;&quot;&gt;lastModifiedAt: Instant?&lt;/font&gt;&lt;/div&gt;&lt;div style=&quot;font-size: 14px; line-height: 140%;&quot;&gt;&lt;br&gt;&lt;/div&gt;" style="align=left;strokeColor=none;fillColor=none;spacingLeft=4;fontSize=12;verticalAlign=top;resizable=0;rotatable=0;part=1;html=1;fontColor=#46495D;" vertex="1" parent="7k4Nm1JUsRb4ZL0qA64T-46">
          <mxGeometry y="50" width="190" height="155" as="geometry" />
        </mxCell>
        <mxCell id="7k4Nm1JUsRb4ZL0qA64T-52" value="&lt;font style=&quot;font-size: 17px;&quot;&gt;Event&lt;/font&gt;" style="swimlane;childLayout=stackLayout;horizontal=1;startSize=50;horizontalStack=0;rounded=1;fontSize=14;fontStyle=0;strokeWidth=2;resizeParent=0;resizeLast=1;shadow=0;dashed=0;align=center;arcSize=4;whiteSpace=wrap;html=1;strokeColor=#36393d;fillColor=#cce5ff;swimlaneFillColor=default;" vertex="1" parent="1">
          <mxGeometry x="-170" y="240" width="212.5" height="160" as="geometry" />
        </mxCell>
        <mxCell id="7k4Nm1JUsRb4ZL0qA64T-53" value="&lt;div style=&quot;font-size: 14px; line-height: 140%;&quot;&gt;&lt;font style=&quot;font-size: 14px;&quot;&gt;id: String?&lt;/font&gt;&lt;/div&gt;&lt;div style=&quot;font-size: 14px; line-height: 140%;&quot;&gt;&lt;font style=&quot;font-size: 14px;&quot;&gt;timestamp: Instant&lt;/font&gt;&lt;/div&gt;&lt;div style=&quot;font-size: 14px; line-height: 140%;&quot;&gt;&lt;font style=&quot;font-size: 14px;&quot;&gt;type: String&lt;/font&gt;&lt;/div&gt;&lt;div style=&quot;font-size: 14px; line-height: 140%;&quot;&gt;&lt;font style=&quot;font-size: 14px;&quot;&gt;details: Map&amp;lt;String, Object&amp;gt;&lt;/font&gt;&lt;/div&gt;" style="align=left;strokeColor=none;fillColor=none;spacingLeft=4;fontSize=12;verticalAlign=top;resizable=0;rotatable=0;part=1;html=1;fontColor=#46495D;" vertex="1" parent="7k4Nm1JUsRb4ZL0qA64T-52">
          <mxGeometry y="50" width="212.5" height="110" as="geometry" />
        </mxCell>
        <mxCell id="7k4Nm1JUsRb4ZL0qA64T-58" value="&lt;font color=&quot;#000000&quot;&gt;0 or many polls per user&lt;/font&gt;" style="edgeStyle=orthogonalEdgeStyle;rounded=0;orthogonalLoop=1;jettySize=auto;html=1;exitX=0;exitY=0.25;exitDx=0;exitDy=0;entryX=0.5;entryY=0;entryDx=0;entryDy=0;strokeColor=#000000;fontColor=#46495D;fillColor=#B2C9AB;endArrow=ERzeroToMany;endFill=0;startArrow=ERone;startFill=0;endSize=12;startSize=12;" edge="1" parent="1" source="7k4Nm1JUsRb4ZL0qA64T-45" target="7k4Nm1JUsRb4ZL0qA64T-42">
          <mxGeometry x="0.2895" relative="1" as="geometry">
            <Array as="points">
              <mxPoint x="180" y="318" />
              <mxPoint x="180" y="490" />
              <mxPoint x="-80" y="490" />
            </Array>
            <mxPoint as="offset" />
          </mxGeometry>
        </mxCell>
        <mxCell id="7k4Nm1JUsRb4ZL0qA64T-62" value="&lt;font color=&quot;#000000&quot;&gt;0 or many votes per poll&lt;/font&gt;" style="edgeStyle=orthogonalEdgeStyle;rounded=0;orthogonalLoop=1;jettySize=auto;html=1;exitX=0;exitY=0.5;exitDx=0;exitDy=0;entryX=1;entryY=0.5;entryDx=0;entryDy=0;strokeColor=#000000;fontColor=#46495D;fillColor=#B2C9AB;endArrow=ERone;endFill=0;endSize=12;startSize=12;startArrow=ERzeroToMany;startFill=0;" edge="1" parent="1">
          <mxGeometry relative="1" as="geometry">
            <mxPoint x="250" y="740" as="sourcePoint" />
            <mxPoint x="20" y="740" as="targetPoint" />
          </mxGeometry>
        </mxCell>
        <mxCell id="7k4Nm1JUsRb4ZL0qA64T-63" value="&lt;font color=&quot;#000000&quot;&gt;One poll per vote&lt;/font&gt;" style="edgeStyle=orthogonalEdgeStyle;rounded=0;orthogonalLoop=1;jettySize=auto;html=1;exitX=0.002;exitY=0.194;exitDx=0;exitDy=0;entryX=1;entryY=0.25;entryDx=0;entryDy=0;strokeColor=#000000;fontColor=#46495D;fillColor=#B2C9AB;exitPerimeter=0;endSize=12;startSize=12;endArrow=ERone;endFill=0;startArrow=ERone;startFill=0;" edge="1" parent="1">
          <mxGeometry relative="1" as="geometry">
            <mxPoint x="250.3800000000001" y="630.0699999999999" as="sourcePoint" />
            <mxPoint x="20" y="630" as="targetPoint" />
          </mxGeometry>
        </mxCell>
      </root>
    </mxGraphModel>
  </diagram>
</mxfile>
